<svg width="28" height="28" viewBox="0 0 28 28" fill="none" xmlns="http://www.w3.org/2000/svg">
<path fill-rule="evenodd" clip-rule="evenodd" d="M11.0833 18.6667V9.33333C11.0833 8.05 12.1217 7 13.4167 7H23.9167V5.83333C23.9167 4.55 22.8667 3.5 21.5833 3.5H5.25C3.955 3.5 2.91666 4.55 2.91666 5.83333V22.1667C2.91666 23.45 3.955 24.5 5.25 24.5H21.5833C22.8667 24.5 23.9167 23.45 23.9167 22.1667V21H13.4167C12.1217 21 11.0833 19.95 11.0833 18.6667ZM14.5833 9.33333C13.9417 9.33333 13.4167 9.85833 13.4167 10.5V17.5C13.4167 18.1417 13.9417 18.6667 14.5833 18.6667H25.0833V9.33333H14.5833ZM16.3333 14C16.3333 14.9683 17.115 15.75 18.0833 15.75C19.0517 15.75 19.8333 14.9683 19.8333 14C19.8333 13.0317 19.0517 12.25 18.0833 12.25C17.115 12.25 16.3333 13.0317 16.3333 14Z" fill="white"/>
</svg>
