<svg width="28" height="28" viewBox="0 0 28 28" fill="none" xmlns="http://www.w3.org/2000/svg">
<path fill-rule="evenodd" clip-rule="evenodd" d="M0.666626 14C0.666626 6.62663 6.62663 0.666626 14 0.666626C21.3733 0.666626 27.3333 6.62663 27.3333 14C27.3333 21.3733 21.3733 27.3333 14 27.3333C6.62663 27.3333 0.666626 21.3733 0.666626 14ZM17.8533 19.7333C18.3733 20.2533 19.2133 20.2533 19.7333 19.7333C20.24 19.2133 20.24 18.36 19.7333 17.8533L15.88 14L19.7333 10.1466C20.2533 9.62663 20.2533 8.78663 19.7333 8.26663C19.2133 7.74663 18.3733 7.74663 17.8533 8.26663L14 12.12L10.1466 8.26663C9.62663 7.74663 8.78662 7.74663 8.26662 8.26663C8.01695 8.51574 7.87664 8.85394 7.87664 9.20663C7.87664 9.55932 8.01695 9.89752 8.26662 10.1466L12.12 14L8.26662 17.8533C8.01695 18.1024 7.87664 18.4406 7.87664 18.7933C7.87664 19.146 8.01695 19.4842 8.26662 19.7333C8.78662 20.2533 9.62663 20.2533 10.1466 19.7333L14 15.88L17.8533 19.7333Z" fill="#EEEEEE" fill-opacity="0.65"/>
</svg>
