<svg width="24" height="24" viewBox="0 0 24 24" fill="none" xmlns="http://www.w3.org/2000/svg">
<path d="M8.66453 5.57864L5.03 9.21317C4.76965 9.47352 4.76965 9.89563 5.03 10.156L5.2987 10.4247C5.55905 10.685 5.98116 10.685 6.24151 10.4247L9.87604 6.79015C10.1364 6.5298 10.1364 6.10769 9.87604 5.84734L9.60734 5.57864C9.34699 5.31829 8.92488 5.31829 8.66453 5.57864Z" fill="#EEEEEE"/>
<path d="M15.5686 11.1999L15.9886 10.7799C16.6152 10.1566 16.9687 9.30991 16.9712 8.42603C16.9737 7.54215 16.625 6.69346 16.0019 6.06661L12.4752 2.55994C11.8501 1.93504 11.0024 1.58398 10.1186 1.58398C9.23468 1.58398 8.38698 1.93504 7.76189 2.55994L2.06189 8.25994C1.43699 8.88503 1.08594 9.73273 1.08594 10.6166C1.08594 11.5005 1.43699 12.3482 2.06189 12.9733L5.56856 16.4799C6.19365 17.1048 7.04134 17.4559 7.92523 17.4559C8.80911 17.4559 9.6568 17.1048 10.2819 16.4799L10.5486 16.2133L12.0019 17.6533H14.2952V19.6533H16.7552V20.7399L18.6686 22.6666H22.6686V18.2999L15.5686 11.1999ZM21.3352 21.3333H19.2419L18.0619 20.1599V18.2933H15.6086V16.2933H12.5352L10.5352 14.2933L9.33523 15.5399C8.96022 15.9145 8.45189 16.1248 7.92189 16.1248C7.39189 16.1248 6.88356 15.9145 6.50856 15.5399L3.00189 11.9999C2.62736 11.6249 2.41699 11.1166 2.41699 10.5866C2.41699 10.0566 2.62736 9.54827 3.00189 9.17327L8.70856 3.46661C9.08356 3.09207 9.59189 2.8817 10.1219 2.8817C10.6519 2.8817 11.1602 3.09207 11.5352 3.46661L15.0419 6.97327C15.4164 7.34827 15.6268 7.8566 15.6268 8.38661C15.6268 8.91661 15.4164 9.42494 15.0419 9.79994L13.7086 11.1333L21.3352 18.8533V21.3333Z" fill="#EEEEEE"/>
</svg>
