<svg width="30" height="30" viewBox="0 0 30 30" fill="none" xmlns="http://www.w3.org/2000/svg">
<path fill-rule="evenodd" clip-rule="evenodd" d="M22.3334 7.66658C22.3334 11.7183 19.0517 14.9999 15 14.9999C10.9484 14.9999 7.66671 11.7183 7.66671 7.66658C7.66671 3.61492 10.9484 0.333252 15 0.333252C19.0517 0.333252 22.3334 3.61492 22.3334 7.66658ZM18.6667 7.66658C18.6667 5.64992 17.0167 3.99992 15 3.99992C12.9834 3.99992 11.3334 5.64992 11.3334 7.66658C11.3334 9.68325 12.9834 11.3333 15 11.3333C17.0167 11.3333 18.6667 9.68325 18.6667 7.66658ZM15 16.8333C10.105 16.8333 0.333374 19.2899 0.333374 24.1666V27.8333C0.333374 28.8416 1.15837 29.6666 2.16671 29.6666H27.8334C28.8417 29.6666 29.6667 28.8416 29.6667 27.8333V24.1666C29.6667 19.2899 19.895 16.8333 15 16.8333ZM4.00004 24.1849V25.9999H26V24.1666C25.6334 22.8649 19.95 20.4999 15 20.4999C10.05 20.4999 4.36671 22.8649 4.00004 24.1849Z" fill="#EEEEEE"/>
</svg>
