<svg width="38" height="38" viewBox="0 0 38 38" fill="none" xmlns="http://www.w3.org/2000/svg">
<path fill-rule="evenodd" clip-rule="evenodd" d="M25.9043 24.355H27.6159L36.8026 33.585C37.6909 34.4733 37.6909 35.925 36.8026 36.8133C35.9143 37.7016 34.4626 37.7016 33.5743 36.8133L24.3659 27.605V25.8933L23.7809 25.2866C20.7476 27.8866 16.6093 29.23 12.2109 28.4933C6.18761 27.475 1.37761 22.4483 0.640939 16.3816C-0.485728 7.21662 7.22761 -0.496714 16.3926 0.629952C22.4593 1.36662 27.4859 6.17662 28.5043 12.2C29.2409 16.5983 27.8976 20.7366 25.2976 23.77L25.9043 24.355ZM4.86594 14.605C4.86594 20 9.22094 24.355 14.6159 24.355C20.0109 24.355 24.3659 20 24.3659 14.605C24.3659 9.20995 20.0109 4.85495 14.6159 4.85495C9.22094 4.85495 4.86594 9.20995 4.86594 14.605Z" fill="#EEEEEE"/>
</svg>
