<svg width="22" height="20" viewBox="0 0 22 20" fill="none" xmlns="http://www.w3.org/2000/svg">
<path fill-rule="evenodd" clip-rule="evenodd" d="M2.83333 3.00008H19.1667C19.8083 3.00008 20.3333 2.47508 20.3333 1.83341C20.3333 1.19175 19.8083 0.666748 19.1667 0.666748H2.83333C2.19166 0.666748 1.66666 1.19175 1.66666 1.83341C1.66666 2.47508 2.19166 3.00008 2.83333 3.00008ZM20.52 5.10008C20.415 4.56341 19.9367 4.16675 19.3767 4.16675H2.62333C2.06333 4.16675 1.58499 4.56341 1.47999 5.10008L0.313328 10.9334C0.173328 11.6567 0.721661 12.3334 1.45666 12.3334H1.66666V18.1667C1.66666 18.8084 2.19166 19.3334 2.83333 19.3334H12.1667C12.8083 19.3334 13.3333 18.8084 13.3333 18.1667V12.3334H18V18.1667C18 18.8084 18.525 19.3334 19.1667 19.3334C19.8083 19.3334 20.3333 18.8084 20.3333 18.1667V12.3334H20.5433C21.2783 12.3334 21.8267 11.6567 21.6867 10.9334L20.52 5.10008ZM3.99999 17.0001H11V12.3334H3.99999V17.0001Z" fill="white"/>
</svg>
