<svg width="19" height="22" viewBox="0 0 19 22" fill="none" xmlns="http://www.w3.org/2000/svg">
<path fill-rule="evenodd" clip-rule="evenodd" d="M7.00303 0.5H11.003C11.553 0.5 12.003 0.95 12.003 1.5C12.003 2.05 11.553 2.5 11.003 2.5H7.00303C6.45303 2.5 6.00303 2.05 6.00303 1.5C6.00303 0.95 6.45303 0.5 7.00303 0.5ZM10.003 12.5C10.003 13.05 9.55303 13.5 9.00303 13.5C8.45303 13.5 8.00303 13.05 8.00303 12.5V8.5C8.00303 7.95 8.45303 7.5 9.00303 7.5C9.55303 7.5 10.003 7.95 10.003 8.5V12.5ZM16.033 6.89L16.783 6.14C17.163 5.76 17.173 5.13 16.783 4.74L16.773 4.73C16.383 4.34 15.763 4.35 15.373 4.73L14.623 5.48C13.073 4.24 11.123 3.5 9.00303 3.5C4.20303 3.5 0.12303 7.46 0.00302986 12.26C-0.12697 17.34 3.94303 21.5 9.00303 21.5C13.983 21.5 18.003 17.47 18.003 12.5C18.003 10.38 17.263 8.43 16.033 6.89ZM2.00303 12.5C2.00303 16.37 5.13303 19.5 9.00303 19.5C12.873 19.5 16.003 16.37 16.003 12.5C16.003 8.63 12.873 5.5 9.00303 5.5C5.13303 5.5 2.00303 8.63 2.00303 12.5Z" fill="#EEEEEE"/>
</svg>
