<svg width="28" height="28" viewBox="0 0 28 28" fill="none" xmlns="http://www.w3.org/2000/svg">
<path fill-rule="evenodd" clip-rule="evenodd" d="M5.83203 10.8092C5.83203 6.29424 9.4837 2.64258 13.9987 2.64258C18.5137 2.64258 22.1654 6.29424 22.1654 10.8092C22.1654 15.6742 17.0087 22.3826 14.897 24.9376C14.4304 25.4976 13.5787 25.4976 13.112 24.9376C10.9887 22.3826 5.83203 15.6742 5.83203 10.8092ZM11.082 10.8092C11.082 12.4192 12.3887 13.7259 13.9987 13.7259C15.6087 13.7259 16.9154 12.4192 16.9154 10.8092C16.9154 9.19924 15.6087 7.89258 13.9987 7.89258C12.3887 7.89258 11.082 9.19924 11.082 10.8092Z" fill="#8442F0"/>
</svg>
