<svg width="26" height="26" viewBox="0 0 26 26" fill="none" xmlns="http://www.w3.org/2000/svg">
<path fill-rule="evenodd" clip-rule="evenodd" d="M2.1665 13C2.1665 7.00919 7.009 2.16669 12.9998 2.16669C18.9907 2.16669 23.8332 7.00919 23.8332 13C23.8332 18.9909 18.9907 23.8334 12.9998 23.8334C7.009 23.8334 2.1665 18.9909 2.1665 13ZM16.1307 17.6584C16.5532 18.0809 17.2357 18.0809 17.6582 17.6584C18.0698 17.2359 18.0698 16.5425 17.6582 16.1309L14.5273 13L17.6582 9.86919C18.0807 9.44669 18.0807 8.76419 17.6582 8.34169C17.2357 7.91919 16.5532 7.91919 16.1307 8.34169L12.9998 11.4725L9.869 8.34169C9.4465 7.91919 8.764 7.91919 8.3415 8.34169C8.13865 8.54409 8.02464 8.81888 8.02464 9.10544C8.02464 9.392 8.13865 9.66679 8.3415 9.86919L11.4723 13L8.3415 16.1309C8.13865 16.3333 8.02464 16.608 8.02464 16.8946C8.02464 17.1812 8.13865 17.456 8.3415 17.6584C8.764 18.0809 9.4465 18.0809 9.869 17.6584L12.9998 14.5275L16.1307 17.6584Z" fill="#B5B5B5"/>
</svg>
