<svg width="22" height="24" viewBox="0 0 22 24" fill="none" xmlns="http://www.w3.org/2000/svg">
<path d="M18 16.8065C17.1133 16.8065 16.32 17.1565 15.7133 17.7049L7.395 12.8632C7.45333 12.5949 7.5 12.3265 7.5 12.0465C7.5 11.7665 7.45333 11.4982 7.395 11.2299L15.62 6.43488C16.25 7.01822 17.0783 7.37988 18 7.37988C19.9367 7.37988 21.5 5.81655 21.5 3.87988C21.5 1.94322 19.9367 0.379883 18 0.379883C16.0633 0.379883 14.5 1.94322 14.5 3.87988C14.5 4.15988 14.5467 4.42822 14.605 4.69655L6.38 9.49155C5.75 8.90821 4.92167 8.54655 4 8.54655C2.06333 8.54655 0.5 10.1099 0.5 12.0465C0.5 13.9832 2.06333 15.5465 4 15.5465C4.92167 15.5465 5.75 15.1849 6.38 14.6015L14.6867 19.4549C14.6283 19.6999 14.5933 19.9565 14.5933 20.2132C14.5933 22.0915 16.1217 23.6199 18 23.6199C19.8783 23.6199 21.4067 22.0915 21.4067 20.2132C21.4067 18.3349 19.8783 16.8065 18 16.8065Z" fill="white"/>
</svg>
